<?xml version="1.0" standalone="no"?>
<!DOCTYPE svg PUBLIC "-//W3C//DTD SVG 20010904//EN"
 "http://www.w3.org/TR/2001/REC-SVG-20010904/DTD/svg10.dtd">
<svg version="1.0" xmlns="http://www.w3.org/2000/svg"
 width="300.000000pt" height="227.000000pt" viewBox="0 0 300.000000 227.000000"
 preserveAspectRatio="xMidYMid meet">
<metadata>
Created by potrace 1.10, written by Peter Selinger 2001-2011
</metadata>
<g transform="translate(0.000000,227.000000) scale(0.100000,-0.100000)"
fill="#000000" stroke="none">
<path d="M1680 1973 c0 -30 -5 -40 -22 -48 -16 -7 -25 -21 -28 -45 -5 -34 -6
-35 -50 -35 -33 0 -45 4 -45 15 -1 30 -16 59 -36 65 -14 5 -19 15 -19 41 0 19
-4 34 -10 34 -5 0 -10 -15 -10 -34 0 -25 -5 -36 -18 -41 -19 -5 -42 -44 -42
-69 0 -8 -14 -12 -42 -11 -39 1 -43 4 -46 28 -2 14 -14 35 -28 46 -16 13 -24
29 -24 50 0 17 -4 31 -10 31 -5 0 -10 -16 -10 -35 0 -19 -4 -35 -10 -35 -19 0
-50 -40 -50 -64 0 -20 -6 -24 -42 -30 -93 -15 -178 -98 -201 -197 -10 -41 -16
-49 -34 -49 -23 0 -63 -32 -63 -50 0 -5 -16 -10 -35 -10 -19 0 -35 -4 -35 -10
0 -5 14 -10 31 -10 21 0 37 -8 51 -25 13 -16 29 -25 49 -25 28 0 29 -2 29 -45
0 -39 -3 -45 -21 -45 -11 0 -34 -13 -51 -30 -19 -20 -40 -30 -59 -30 -16 0
-29 -4 -29 -10 0 -5 14 -10 30 -10 21 0 38 -9 54 -27 12 -14 34 -27 47 -28 21
-1 24 -7 27 -48 3 -46 3 -47 -27 -47 -28 0 -61 -22 -61 -40 0 -5 -16 -10 -35
-12 -40 -3 -44 -23 -5 -24 14 0 37 -12 52 -27 15 -15 38 -27 53 -27 19 0 25
-5 25 -22 0 -40 45 -122 88 -160 45 -40 101 -68 137 -68 18 0 24 -7 29 -35 5
-25 15 -39 32 -47 18 -9 24 -19 24 -45 0 -18 5 -33 10 -33 6 0 10 14 10 31 0
21 8 37 24 50 14 11 26 32 28 47 3 24 8 27 46 30 32 2 42 0 42 -12 0 -27 22
-65 42 -71 13 -5 18 -16 18 -41 0 -19 5 -34 10 -34 6 0 10 14 10 30 0 21 9 38
27 54 14 12 27 34 28 47 1 21 6 24 46 24 42 0 44 -1 47 -33 2 -23 10 -36 27
-44 17 -8 25 -20 27 -45 3 -38 23 -41 23 -3 0 14 12 37 28 52 15 15 27 38 27
53 0 16 5 25 16 25 40 0 99 27 141 64 46 41 93 122 93 164 0 17 6 22 25 22 15
0 38 12 53 27 16 17 38 28 54 28 40 0 34 19 -7 23 -19 2 -35 7 -35 12 0 18
-33 40 -61 40 -28 0 -29 2 -29 44 0 41 2 45 30 51 16 4 38 17 49 31 13 16 29
24 50 24 17 0 31 5 31 10 0 6 -13 10 -29 10 -19 0 -40 10 -59 30 -17 17 -40
30 -51 30 -18 0 -21 6 -21 45 0 43 1 45 29 45 20 0 36 9 49 25 14 17 30 25 51
25 17 0 31 5 31 10 0 6 -16 10 -35 10 -19 0 -35 4 -35 10 0 17 -43 50 -67 50
-17 0 -23 6 -23 23 0 35 -44 119 -80 154 -38 37 -86 62 -136 70 -28 5 -34 10
-34 30 0 13 -12 36 -27 51 -18 17 -28 38 -28 56 0 16 -6 31 -12 33 -9 3 -13
-7 -13 -34z m-402 -75 c7 -7 12 -21 12 -33 0 -18 -6 -21 -42 -20 -37 1 -42 4
-40 21 8 41 44 58 70 32z m220 0 c7 -7 12 -21 12 -33 0 -17 -6 -20 -40 -20
-34 0 -40 3 -40 20 0 25 18 45 40 45 9 0 21 -5 28 -12z m230 -23 c3 -29 1 -30
-38 -30 -34 0 -40 3 -40 20 0 29 20 46 50 43 20 -2 26 -9 28 -33z m112 -76
c55 -25 95 -62 123 -114 21 -38 22 -54 25 -362 2 -208 -1 -336 -8 -362 -16
-61 -68 -122 -129 -153 l-55 -28 -325 0 c-322 0 -327 0 -376 24 -60 28 -97 66
-124 126 -19 42 -21 64 -21 370 0 306 2 328 21 370 27 60 64 98 124 126 49 24
54 24 375 24 305 0 328 -2 370 -21z m-912 -277 c3 -38 1 -42 -20 -42 -48 0
-65 47 -26 74 32 23 43 15 46 -32z m1133 29 c21 -16 22 -22 11 -45 -8 -18 -19
-26 -37 -26 -22 0 -25 4 -25 38 0 57 12 65 51 33z m-1131 -251 c0 -35 -3 -40
-23 -40 -27 0 -47 17 -47 40 0 23 20 40 47 40 20 0 23 -5 23 -40z m1144 18
c15 -25 -3 -52 -38 -56 -24 -3 -26 -1 -26 38 0 39 2 41 26 38 15 -2 32 -11 38
-20z m-1144 -238 c0 -38 -2 -40 -30 -40 -23 0 -31 5 -36 25 -8 31 10 55 42 55
21 0 24 -5 24 -40z m1140 26 c6 -8 10 -25 8 -38 -2 -18 -10 -24 -35 -26 -32
-3 -33 -2 -33 37 0 36 3 41 24 41 13 0 29 -7 36 -14z m-780 -370 c0 -49 -54
-61 -77 -16 -16 32 -9 40 38 40 34 0 39 -3 39 -24z m218 -2 c-7 -57 -69 -57
-76 0 -3 24 -1 26 38 26 39 0 41 -2 38 -26z m220 -6 c-2 -26 -8 -34 -26 -36
-30 -5 -52 14 -52 44 0 21 5 24 41 24 39 0 40 -1 37 -32z"/>
<path d="M1252 1645 c-16 -14 -33 -36 -36 -50 -5 -19 -13 -25 -35 -25 -55 0
-125 -89 -107 -136 4 -10 -5 -25 -24 -40 -58 -49 -58 -129 1 -190 17 -18 28
-37 24 -43 -11 -19 15 -79 46 -106 18 -14 43 -25 60 -25 22 0 30 -6 35 -25 3
-14 20 -36 36 -50 35 -29 101 -34 136 -9 49 34 52 53 52 354 0 301 -3 320 -52
354 -35 25 -101 20 -136 -9z m118 -10 c37 -19 50 -64 50 -177 0 -97 -11 -111
-48 -63 l-20 26 24 24 c24 24 32 55 14 55 -5 0 -10 -4 -10 -10 0 -24 -46 -51
-82 -48 -20 1 -40 -1 -44 -5 -9 -8 46 -29 61 -23 7 2 22 -9 34 -25 12 -17 33
-34 47 -39 24 -9 24 -10 24 -158 0 -83 -5 -163 -11 -181 -24 -68 -122 -80
-159 -18 -27 44 -25 71 8 108 25 28 31 30 62 22 39 -10 70 -7 70 8 0 5 -14 9
-32 9 -52 0 -97 56 -69 86 17 17 17 84 1 84 -5 0 -10 -15 -10 -33 0 -36 -19
-60 -57 -71 -33 -10 -29 -30 5 -23 21 4 31 1 40 -13 9 -15 7 -21 -13 -34 -13
-8 -29 -31 -36 -51 -16 -45 -49 -47 -90 -6 -22 23 -29 39 -29 69 0 32 -7 47
-35 75 -29 29 -35 42 -35 77 0 36 6 48 35 76 28 26 35 40 35 69 0 20 5 45 10
56 13 24 61 49 93 49 18 0 27 7 31 26 9 36 50 74 81 74 14 0 39 -7 55 -15z"/>
<path d="M1552 1654 c-49 -34 -52 -53 -52 -354 0 -301 3 -320 52 -354 35 -25
101 -20 136 9 16 14 33 36 36 50 5 19 13 25 35 25 17 0 42 11 60 25 31 27 57
87 46 105 -4 6 9 29 29 50 31 35 36 47 36 91 0 45 -4 55 -35 86 -19 19 -34 42
-33 51 5 67 -33 119 -93 128 -33 6 -42 12 -53 39 -8 18 -24 40 -37 49 -30 20
-98 21 -127 0z m108 -19 c20 -11 32 -27 40 -54 8 -32 14 -38 30 -34 28 7 76
-14 95 -43 8 -13 15 -41 15 -63 0 -30 5 -43 20 -51 26 -14 50 -62 50 -101 0
-23 -10 -41 -37 -68 -31 -30 -36 -42 -34 -74 2 -30 -3 -43 -27 -67 -42 -42
-74 -40 -91 5 -7 20 -23 43 -37 51 -19 13 -22 20 -14 35 8 14 17 17 40 12 39
-7 39 12 1 25 -33 12 -54 43 -49 74 2 12 -3 23 -11 26 -10 3 -12 -4 -8 -34 2
-22 8 -48 11 -59 11 -33 -28 -75 -70 -75 -19 0 -34 -4 -34 -9 0 -14 31 -18 69
-8 28 7 37 5 57 -13 71 -67 5 -180 -89 -154 -56 16 -67 55 -67 232 0 152 0
153 24 162 14 5 35 22 47 39 12 16 27 27 34 25 15 -6 70 15 61 23 -4 4 -22 6
-41 4 -41 -3 -71 12 -80 39 -3 11 -11 20 -16 20 -18 0 -9 -31 16 -56 l25 -25
-25 -24 c-13 -14 -29 -25 -35 -25 -14 0 -13 178 1 219 11 32 49 60 82 61 10 0
31 -7 47 -15z"/>
</g>
</svg>
