<?xml version="1.0" standalone="no"?>
<!DOCTYPE svg PUBLIC "-//W3C//DTD SVG 20010904//EN"
 "http://www.w3.org/TR/2001/REC-SVG-20010904/DTD/svg10.dtd">
<svg version="1.0" xmlns="http://www.w3.org/2000/svg"
 width="512.000000pt" height="512.000000pt" viewBox="0 0 512.000000 512.000000"
 preserveAspectRatio="xMidYMid meet">

<g transform="translate(0.000000,512.000000) scale(0.100000,-0.100000)"
fill="#000000" stroke="none">
<path d="M1727 5064 c-110 -34 -183 -158 -158 -270 31 -136 163 -218 292 -181
l54 16 133 -132 132 -132 0 -217 0 -218 -35 0 c-51 0 -101 -24 -118 -57 -8
-15 -20 -53 -26 -84 l-12 -55 -78 -32 c-42 -18 -82 -32 -87 -32 -5 0 -34 16
-64 35 -74 48 -116 47 -171 -2 l-40 -37 -150 150 c-148 148 -150 150 -139 180
7 16 12 55 12 86 0 82 -40 151 -113 196 -51 31 -59 33 -131 30 -66 -3 -82 -7
-119 -33 -24 -17 -57 -53 -74 -80 -55 -88 -37 -214 42 -286 64 -60 156 -82
230 -56 l41 14 151 -151 150 -151 -34 -37 c-49 -53 -49 -103 1 -177 l36 -54
-33 -81 c-18 -45 -37 -84 -43 -88 -5 -3 -30 -9 -55 -13 -91 -14 -131 -55 -131
-135 l0 -40 -218 0 -217 0 -133 133 c-128 128 -133 134 -122 161 16 43 12 136
-9 181 -39 84 -120 135 -214 135 -92 0 -168 -45 -210 -124 -28 -53 -30 -165
-5 -212 22 -41 72 -90 111 -110 45 -24 135 -29 178 -11 l36 15 154 -154 153
-154 246 -2 245 -3 6 -50 c3 -27 9 -58 13 -67 12 -27 52 -48 117 -61 l61 -12
34 -83 34 -83 -35 -57 c-48 -78 -48 -127 -1 -180 l35 -38 -183 -183 c-176
-176 -183 -182 -210 -171 -43 16 -136 12 -181 -9 -122 -57 -170 -199 -107
-322 70 -139 248 -170 363 -62 72 67 98 168 65 247 l-14 33 183 183 184 183
36 -32 c20 -17 49 -34 65 -37 26 -6 31 -14 55 -93 29 -91 80 -223 193 -491
197 -468 246 -780 187 -1174 -21 -137 -20 -151 11 -175 26 -21 35 -21 650 -21
l623 0 25 23 c13 12 36 54 50 94 95 269 154 296 502 228 213 -41 280 -33 356
45 54 56 82 132 93 251 7 66 11 78 41 109 67 71 80 164 32 225 l-21 26 22 15
c50 36 63 108 36 198 -18 59 -16 62 69 71 188 20 273 98 245 223 -13 57 -35
99 -137 261 -46 74 -97 162 -112 195 l-27 61 15 170 c30 336 -16 561 -163 791
l-33 51 86 23 c172 46 350 158 457 287 244 295 230 696 -33 975 -120 127 -269
213 -447 259 -133 34 -341 33 -476 -3 -311 -84 -548 -307 -619 -584 -24 -92
-26 -241 -6 -329 8 -33 14 -60 13 -61 -1 -1 -42 3 -92 8 -49 5 -130 8 -179 5
l-89 -5 -54 44 c-70 57 -107 59 -180 9 -29 -19 -57 -35 -62 -35 -5 0 -46 14
-89 31 l-80 31 -12 62 c-7 33 -16 69 -22 79 -16 30 -70 57 -115 57 l-43 0 0
242 0 243 -154 155 -155 155 16 60 c15 55 15 64 -1 118 -23 78 -83 139 -157
161 -63 19 -79 19 -142 0z m138 -159 c17 -17 25 -35 25 -60 0 -49 -15 -74 -56
-91 -29 -12 -39 -12 -68 0 -41 17 -56 42 -56 91 0 78 99 116 155 60z m2470
-410 c297 -52 536 -262 590 -520 19 -90 19 -138 -1 -232 -48 -236 -251 -437
-509 -509 -90 -25 -294 -30 -392 -10 -44 9 -87 16 -96 16 -9 0 -67 -41 -128
-90 -62 -50 -113 -89 -115 -88 -1 2 10 63 24 136 l27 134 -60 57 c-158 150
-225 289 -225 466 0 413 425 720 885 640z m-3231 -356 c43 -51 32 -115 -25
-145 -78 -40 -165 47 -125 125 20 38 41 50 88 51 28 0 42 -7 62 -31z m1262
-396 c9 -63 28 -109 51 -121 53 -29 249 -102 272 -102 14 0 50 16 80 36 l53
36 74 -73 c41 -41 74 -77 74 -82 0 -4 -16 -31 -35 -60 -19 -28 -35 -61 -35
-72 0 -22 90 -243 114 -280 8 -13 30 -26 48 -30 18 -4 50 -11 71 -16 l37 -10
0 -103 c0 -115 3 -110 -74 -121 -26 -4 -56 -15 -67 -24 -22 -18 -129 -261
-129 -294 0 -12 16 -46 35 -74 19 -29 35 -56 35 -60 0 -5 -33 -41 -73 -81
l-72 -72 -45 31 c-82 55 -80 55 -222 -2 -71 -28 -139 -60 -151 -69 -15 -12
-27 -41 -37 -87 l-15 -68 -105 0 -105 0 -15 67 c-8 37 -22 74 -30 82 -14 14
-270 126 -287 126 -4 0 -37 -18 -73 -39 l-65 -40 -72 72 c-40 39 -73 75 -73
80 0 4 16 31 35 60 19 28 35 61 35 73 0 36 -100 268 -125 290 -14 13 -44 25
-72 29 -75 10 -74 9 -71 125 l3 104 65 13 c36 7 72 21 81 31 21 22 119 258
119 286 0 12 -16 45 -35 73 -19 29 -35 56 -35 60 0 5 33 41 74 82 l74 73 53
-36 c30 -20 66 -36 81 -36 32 0 264 93 289 116 10 9 23 46 30 85 l12 69 108 0
108 0 7 -47z m917 -238 c111 -9 125 -14 149 -54 12 -20 51 -66 86 -103 l64
-67 -41 -198 c-23 -109 -41 -205 -41 -214 0 -25 31 -57 61 -64 24 -6 51 12
209 140 l182 147 62 -11 c34 -6 83 -11 107 -12 61 -1 72 -7 115 -63 156 -205
209 -418 182 -739 -7 -89 -12 -182 -12 -207 1 -60 38 -135 168 -344 118 -189
127 -218 74 -234 -18 -6 -58 -13 -88 -16 -137 -16 -210 -68 -210 -150 0 -23 7
-65 15 -92 8 -27 11 -51 7 -55 -4 -3 -38 -14 -77 -23 -100 -25 -134 -62 -104
-118 6 -11 44 -35 84 -53 40 -19 76 -39 81 -46 4 -8 -6 -23 -30 -42 -46 -37
-55 -59 -67 -167 -13 -117 -26 -159 -59 -192 -36 -36 -69 -36 -238 -2 -187 37
-292 42 -378 16 -116 -35 -177 -102 -244 -264 l-39 -93 -535 0 c-294 0 -537 2
-539 5 -3 3 0 32 6 65 6 33 11 152 11 265 1 368 -44 542 -292 1130 -62 147
-117 302 -136 383 -4 19 -2 27 6 27 11 0 157 -57 166 -65 1 -1 7 -28 13 -60
22 -120 51 -135 249 -135 200 0 227 14 250 136 l12 61 77 31 c43 18 83 32 90
32 7 0 33 -14 58 -31 27 -19 63 -34 88 -37 38 -4 47 -1 84 34 l42 38 121 -121
121 -121 -12 -32 c-52 -150 61 -312 218 -312 75 -1 133 25 181 80 47 52 64
106 58 179 -12 145 -169 248 -305 200 l-41 -14 -116 116 c-64 64 -116 121
-116 126 0 5 14 24 32 42 46 48 45 103 -4 175 l-38 54 31 75 c17 40 35 79 41
85 5 7 30 15 56 19 57 8 96 27 116 57 13 18 16 55 16 193 0 214 -6 225 -130
250 -60 11 -64 16 -109 131 l-20 51 37 54 c37 55 46 100 29 147 -8 22 -7 22
45 17 29 -2 84 -7 121 -10z m-2942 -124 c73 -73 -6 -190 -102 -151 -38 16 -64
67 -55 105 19 75 103 100 157 46z m3133 -1612 c24 -27 27 -38 22 -68 -12 -79
-101 -108 -157 -52 -32 32 -37 70 -15 110 32 58 101 62 150 10z m-2453 -99
c10 -6 26 -24 35 -41 40 -78 -46 -165 -125 -125 -57 30 -68 94 -25 145 28 33
75 42 115 21z"/>
<path d="M3753 3968 c-80 -21 -112 -131 -54 -188 78 -78 201 -32 201 76 0 76
-73 132 -147 112z"/>
<path d="M4163 3973 c-32 -6 -80 -57 -85 -91 -15 -102 82 -174 172 -127 36 19
60 62 60 109 0 68 -74 123 -147 109z"/>
<path d="M4561 3967 c-48 -17 -76 -58 -76 -114 0 -39 5 -49 37 -79 28 -25 47
-34 73 -34 50 0 89 23 109 64 21 45 20 74 -4 113 -30 50 -83 69 -139 50z"/>
<path d="M2175 3440 c-303 -40 -526 -315 -502 -619 19 -245 196 -453 437 -516
95 -25 252 -17 342 18 230 88 378 305 378 551 -1 338 -317 610 -655 566z m267
-182 c117 -58 200 -160 232 -283 54 -206 -47 -416 -244 -508 -51 -25 -81 -32
-148 -35 -236 -13 -421 134 -464 368 -24 127 24 273 122 371 97 98 180 130
326 126 94 -2 106 -5 176 -39z"/>
<path d="M2304 2958 c-74 -72 -135 -130 -137 -127 -2 2 -20 32 -41 66 -40 68
-69 84 -112 64 -28 -12 -47 -52 -37 -78 3 -10 33 -65 66 -121 60 -104 88 -129
126 -117 9 3 94 83 189 178 120 121 172 180 172 196 0 28 -43 71 -71 71 -15 0
-65 -43 -155 -132z"/>
</g>
</svg>
