<?xml version="1.0" encoding="UTF-8"?>
<svg version="1.1" xmlns="http://www.w3.org/2000/svg" width="571" height="323">
<path d="M0 0 C188.43 0 376.86 0 571 0 C571 106.59 571 213.18 571 323 C382.57 323 194.14 323 0 323 C0 216.41 0 109.82 0 0 Z " fill="#15051F" transform="translate(0,0)"/>
<path d="M0 0 C1.6775576 0.27329361 3.34373438 0.61832855 5 1 C5.79277344 1.16757812 6.58554687 1.33515625 7.40234375 1.5078125 C24.27566222 5.61564658 38.00994019 14.77546312 47.5390625 29.39453125 C54.15633327 41.19592056 56.35115497 52.54456241 56.859375 65.8671875 C57.32601758 72.88626963 59.21051203 76.87540089 64 82 C65.01320313 83.09248047 65.01320313 83.09248047 66.046875 84.20703125 C66.60890625 84.73683594 67.1709375 85.26664062 67.75 85.8125 C70.50700925 88.42669121 72.70876642 90.58023629 73.5 94.4375 C73 97 73 97 70.3125 99.1875 C63.34482759 103 63.34482759 103 59 103 C59.165 103.680625 59.33 104.36125 59.5 105.0625 C60.08659433 108.50874167 60.32300888 111.51150412 60 115 C58 116.9375 58 116.9375 56 118 C56.66 118.556875 57.32 119.11375 58 119.6875 C60 122 60 122 60.5 124.4375 C60 127 60 127 58.0625 129.18359375 C55.20869787 133.08054704 54.85956838 137.00167009 54.22265625 141.6484375 C53.42379837 146.57965898 53.42379837 146.57965898 51.29418945 148.69189453 C48.45580857 150.31028814 46.64232971 150.35911301 43.38671875 150.328125 C42.30326172 150.32296875 41.21980469 150.3178125 40.10351562 150.3125 C38.97623047 150.291875 37.84894531 150.27125 36.6875 150.25 C35.57181641 150.24484375 34.45613281 150.2396875 33.30664062 150.234375 C27.77884839 150.18194781 22.4444482 149.97418698 17 149 C16.43087514 163.28548498 16.43087514 163.28548498 20 177 C18.35 176.67 16.7 176.34 15 176 C15 175.34 15 174.68 15 174 C14.28457031 174.05414063 13.56914062 174.10828125 12.83203125 174.1640625 C9.46320083 173.96890267 7.6339926 173.00036367 4.6875 171.375 C-0.85052017 168.47576419 -6.43836479 166.21169116 -12.30395508 164.09326172 C-15.50690142 162.93627163 -18.66707292 161.74020787 -21.79296875 160.38671875 C-24.93130897 158.97497286 -24.93130897 158.97497286 -28 158 C-28 157.34 -28 156.68 -28 156 C-30.31 155.67 -32.62 155.34 -35 155 C-35 154.34 -35 153.68 -35 153 C-35.81791016 152.85304687 -35.81791016 152.85304687 -36.65234375 152.703125 C-43.27055056 151.39079681 -48.98860814 149.00569593 -55 146 C-55.01981934 145.39639648 -55.03963867 144.79279297 -55.06005859 144.17089844 C-55.76598332 123.71078165 -59.27351244 106.18500538 -65.7265625 86.79296875 C-71.26234289 69.8732537 -72.20576768 53.65783293 -64.26953125 37.23046875 C-58.89024973 26.95868118 -51.43913147 18.72753708 -42.53125 11.375 C-40.87610346 10.05779245 -40.87610346 10.05779245 -40 8 C-37.525 8.495 -37.525 8.495 -35 9 C-34.375 11.375 -34.375 11.375 -34 14 C-36 16 -36 16 -39.4375 17.4375 C-42.53212648 18.79479232 -43.83337369 19.60530776 -46 22 C-46.66 22 -47.32 22 -48 22 C-48.27199219 22.58523437 -48.54398438 23.17046875 -48.82421875 23.7734375 C-49.97966487 25.96149162 -51.26246014 27.70278698 -52.8125 29.625 C-62.73633334 42.74382358 -65.63090868 57.42841226 -63.53125 73.61328125 C-60.73992322 88.81604319 -52.2890215 101.67394416 -40 111 C-35.9208319 113.75386876 -31.72875368 115.61597453 -27 117 C-26.957279 118.66611905 -26.95936168 120.33382885 -27 122 C-28 123 -28 123 -30.3125 123.3125 C-33.84380916 122.90188266 -34.54485993 121.51707153 -37 119 C-38.77018472 117.67904645 -40.56339784 116.38855445 -42.375 115.125 C-46.69307159 112.03818577 -50.40067144 108.89116601 -54 105 C-53.71125 106.216875 -53.4225 107.43375 -53.125 108.6875 C-50.62497351 120.07059936 -49.56636543 131.38950877 -49 143 C-48.41476563 143.1959375 -47.82953125 143.391875 -47.2265625 143.59375 C-40.28298136 146.01253502 -33.61991061 148.90206934 -26.92529297 151.92456055 C-20.76202307 154.69512784 -14.53393248 157.23295285 -8.234375 159.67578125 C-5.06706322 160.97254296 -2.03956253 162.42955936 1 164 C0.6390625 163.52949219 0.278125 163.05898437 -0.09375 162.57421875 C-0.78984375 161.64029297 -0.78984375 161.64029297 -1.5 160.6875 C-1.9640625 160.07261719 -2.428125 159.45773438 -2.90625 158.82421875 C-4 157 -4 157 -4 154 C-4.66 154 -5.32 154 -6 154 C-10.3015209 142.43966259 -11.75358941 131.86134254 -8 120 C-6.52853516 119.88785156 -6.52853516 119.88785156 -5.02734375 119.7734375 C8.12516509 118.57267767 20.0031654 115.41734628 30.16796875 106.515625 C32 105 32 105 34.11328125 104.046875 C36.53602149 102.70258021 36.90107696 101.51501493 38 99 C39.1112483 97.26196387 40.23758382 95.53352492 41.375 93.8125 C48.15350421 83.23520905 50.19805815 74.84153217 50.3125 62.375 C50.34150391 61.34503906 50.37050781 60.31507812 50.40039062 59.25390625 C50.5150341 45.23212695 44.3038405 32.25104052 34.6875 22.125 C26.67975708 14.61943757 15.77355001 7.68062845 4.5 7.875 C3.6853125 7.93429688 2.870625 7.99359375 2.03125 8.0546875 C0 8 0 8 -2 6 C-1.44444444 1.44444444 -1.44444444 1.44444444 0 0 Z " fill="#7720A9" transform="translate(282,43)"/>
<path d="M0 0 C9.56414634 7.48930924 17.2920936 17.98108367 19.0625 30.25 C19.84899416 43.34964047 19.08111022 54.76846916 12.0625 66.25 C11.35106912 68.23451771 10.67258664 70.23202112 10.0625 72.25 C7.6875 72.875 7.6875 72.875 5.0625 73.25 C4.4025 72.59 3.7425 71.93 3.0625 71.25 C3.15916253 67.67348651 3.85175756 66.45519659 6.4375 63.9375 C9.69594671 60.60147122 10.70654137 57.62296659 12.0625 53.25 C12.454375 52.21875 12.84625 51.1875 13.25 50.125 C15.66499239 38.60734401 14.32872352 27.77799441 8.51953125 17.52734375 C1.76755302 7.28349578 -7.27504425 0.09573009 -19.25 -3.0625 C-32.02224229 -5.37452277 -44.37607861 -3.73028162 -55.3125 3.5 C-63.60018976 9.85657758 -70.45059775 17.8506782 -72.9375 28.25 C-74.82612989 43.05954765 -72.87979785 56.2818396 -64.17578125 68.58203125 C-58.80081796 74.9888374 -51.56298809 78.18867266 -43.9375 81.25 C-43.16019531 81.61222656 -42.38289063 81.97445312 -41.58203125 82.34765625 C-38.38762265 83.43762433 -35.74426113 83.48044539 -32.375 83.4375 C-31.25996094 83.43105469 -30.14492188 83.42460937 -28.99609375 83.41796875 C-26.03565798 83.36585653 -26.03565798 83.36585653 -23.66015625 82.61328125 C-23.09167969 82.49339844 -22.52320313 82.37351562 -21.9375 82.25 C-19.9375 84.25 -19.9375 84.25 -19.75 86.8125 C-19.9375 89.25 -19.9375 89.25 -20.9375 90.25 C-22.60367115 90.29063832 -24.27138095 90.292721 -25.9375 90.25 C-25.9375 89.59 -25.9375 88.93 -25.9375 88.25 C-27.113125 88.311875 -28.28875 88.37375 -29.5 88.4375 C-40.76211515 88.38420923 -50.81103738 85.88581005 -59.9375 79.25 C-61.2678125 78.38375 -61.2678125 78.38375 -62.625 77.5 C-66.32887587 73.89622888 -69.26697621 69.66752351 -71.9375 65.25 C-71.9375 64.59 -71.9375 63.93 -71.9375 63.25 C-72.5975 63.25 -73.2575 63.25 -73.9375 63.25 C-79.98432101 50.20614325 -81.7381666 35.76947708 -76.8125 22 C-73.45231954 14.59621254 -68.88413508 8.76151544 -62.9375 3.25 C-62.43734375 2.76789063 -61.9371875 2.28578125 -61.421875 1.7890625 C-43.49313439 -14.71543236 -19.10228935 -12.92754658 0 0 Z " fill="#7D24B0" transform="translate(305.9375,65.75)"/>
<path d="M0 0 C1.20269531 -0.02578125 2.40539062 -0.0515625 3.64453125 -0.078125 C8.76118793 0.39574398 11.82107557 1.95633028 15.53515625 5.47265625 C17.67242224 9.06508206 17.68782639 11.52839326 17.625 15.6875 C17.62371094 16.96496094 17.62242187 18.24242187 17.62109375 19.55859375 C17.03396615 24.55711249 15.87791447 27.83884557 11.96484375 31.10546875 C8.41393679 32.56878203 5.58364872 32.61268875 1.75 32.5625 C-0.16619141 32.55669922 -0.16619141 32.55669922 -2.12109375 32.55078125 C-7.2206517 32.13526171 -10.65085825 31.15911094 -14.6875 28 C-17.91297248 23.79648103 -17.32568927 18.75357641 -17.28125 13.6875 C-16.65294203 9.07990819 -15.28923468 5.5882908 -11.8125 2.4375 C-7.88789402 0.1072652 -4.48052855 0.05725915 0 0 Z " fill="#9124D0" transform="translate(327.8125,247.75)"/>
<path d="M0 0 C0.87785156 -0.03287109 1.75570312 -0.06574219 2.66015625 -0.09960938 C8.96167862 -0.1511077 13.66812813 1.06288646 18.375 5.4375 C21.67917315 10.87185335 20.95954514 17.29977599 20.375 23.4375 C18.92438498 27.54259095 16.01663762 30.15575796 12.375 32.4375 C9.82543945 32.79394531 9.82543945 32.79394531 6.98828125 32.765625 C5.96798828 32.76046875 4.94769531 32.7553125 3.89648438 32.75 C2.83751953 32.729375 1.77855469 32.70875 0.6875 32.6875 C-0.38306641 32.68234375 -1.45363281 32.6771875 -2.55664062 32.671875 C-10.47092209 32.59157791 -10.47092209 32.59157791 -11.625 31.4375 C-11.84289186 27.32172411 -11.81079188 23.20285077 -11.81030273 19.08178711 C-11.81248734 17.01199736 -11.83063491 14.94274207 -11.84960938 12.87304688 C-11.85154297 11.57560547 -11.85347656 10.27816406 -11.85546875 8.94140625 C-11.85957764 7.74330322 -11.86368652 6.5452002 -11.86791992 5.31079102 C-11.29780224 -1.43264116 -5.30254625 0.03413656 0 0 Z " fill="#9124D1" transform="translate(200.625,247.5625)"/>
<path d="M0 0 C0.66 0.66 1.32 1.32 2 2 C1.46428571 5.53571429 1.46428571 5.53571429 0 7 C-1.35131469 7.24542477 -2.70622702 7.47114771 -4.0625 7.6875 C-11.41128976 9.2972349 -16.0970931 13.36763694 -20.375 19.4375 C-25.25808913 27.41232762 -26.36722926 35.71766809 -24.3828125 44.8359375 C-21.45011985 54.10117004 -15.46867628 61.34488389 -6.98828125 66.13671875 C-3.70161634 67.56373829 -0.52668397 67.89977452 3 68 C3.88042969 68.061875 4.76085937 68.12375 5.66796875 68.1875 C14.72171569 68.58711366 19.7696555 66.00500854 26.6875 60.375 C32.40084824 55.11556198 36.62281648 47.8106357 37.23828125 39.9609375 C37.38065612 33.08198316 37.18413749 27.7845873 33.875 21.671875 C33 20 33 20 33 18 C31.68 17.67 30.36 17.34 29 17 C27.875 12.25 27.875 12.25 29 10 C30.98 10 32.96 10 35 10 C35.226875 10.78375 35.45375 11.5675 35.6875 12.375 C36.78039783 15.81980408 36.78039783 15.81980408 38.24609375 17.921875 C41.97067917 23.87277068 42.51081643 29.19866918 42.5625 36.0625 C42.58401123 37.32054443 42.58401123 37.32054443 42.60595703 38.60400391 C42.44850991 48.53094774 38.34964555 55.51653257 31.63671875 62.62890625 C22.47147861 70.87083331 13.5434802 73.48360283 1.4453125 73.33203125 C-7.60271086 72.46005621 -14.90701314 68.39559491 -20.953125 61.6875 C-28.96720105 51.16520167 -31.55997654 41.92955854 -30.27587891 28.93212891 C-29.67754728 24.74168956 -28.33187339 21.49781008 -26 18 C-25.5875 17.319375 -25.175 16.63875 -24.75 15.9375 C-20.90498016 10.16997024 -15.81463787 6.63990801 -10 3 C-9.12859375 2.44570312 -8.2571875 1.89140625 -7.359375 1.3203125 C-4.63423048 -0.20468559 -3.07573623 -0.41564003 0 0 Z " fill="#7520A6" transform="translate(270,69)"/>
<path d="M0 0 C1.24233398 -0.01836914 1.24233398 -0.01836914 2.50976562 -0.03710938 C3.30189453 -0.03904297 4.09402344 -0.04097656 4.91015625 -0.04296875 C5.63468994 -0.04707764 6.35922363 -0.05118652 7.10571289 -0.05541992 C8.9375 0.1875 8.9375 0.1875 10.9375 2.1875 C11.16455078 5.16845703 11.16455078 5.16845703 11.1328125 8.9453125 C11.1299826 9.60836395 11.12715271 10.27141541 11.12423706 10.95455933 C11.11303435 13.07405583 11.08793051 15.19313104 11.0625 17.3125 C11.05247028 18.74869182 11.04334441 20.18489025 11.03515625 21.62109375 C11.013095 25.14336628 10.97856494 28.66539203 10.9375 32.1875 C8.9575 32.1875 6.9775 32.1875 4.9375 32.1875 C4.9375 29.8775 4.9375 27.5675 4.9375 25.1875 C-1.6625 25.1875 -8.2625 25.1875 -15.0625 25.1875 C-15.0625 27.4975 -15.0625 29.8075 -15.0625 32.1875 C-17.0425 32.1875 -19.0225 32.1875 -21.0625 32.1875 C-21.17939626 28.81279496 -21.24997934 25.4386157 -21.3125 22.0625 C-21.34601563 21.11117188 -21.37953125 20.15984375 -21.4140625 19.1796875 C-21.49575981 13.29748093 -21.08661425 9.81266593 -17.0625 5.1875 C-11.46454368 0.13568576 -7.1838818 0.0056168 0 0 Z " fill="#8F24CE" transform="translate(461.0625,247.8125)"/>
<path d="M0 0 C1.86132812 0.30419922 1.86132812 0.30419922 4 1 C5.67049714 3.35869491 7.09710976 5.61607684 8.5 8.125 C8.87769531 8.77726562 9.25539063 9.42953125 9.64453125 10.1015625 C10.77573113 12.06075404 11.8889799 14.02930853 13 16 C13.75959849 17.33119636 14.51996746 18.66195349 15.28125 19.9921875 C15.8484375 20.98476563 16.415625 21.97734375 17 23 C19.79565345 18.9018262 22.55647653 14.80486641 25.0390625 10.5078125 C25.38517578 9.91701904 25.73128906 9.32622559 26.08789062 8.7175293 C27.09239369 6.99346341 28.08162377 5.260527 29.0703125 3.52734375 C29.70710938 2.69332031 30.34390625 1.85929688 31 1 C32.32 1 33.64 1 35 1 C36 2 36 2 36.11352539 4.86743164 C36.10828857 6.11903076 36.10305176 7.37062988 36.09765625 8.66015625 C36.0962413 9.32462265 36.09482635 9.98908905 36.09336853 10.6736908 C36.08775518 12.80333899 36.07520054 14.93288339 36.0625 17.0625 C36.05748671 18.50325369 36.05292351 19.94400903 36.04882812 21.38476562 C36.03778145 24.92321102 36.02050792 28.46159539 36 32 C34.02 32 32.04 32 30 32 C29.67 26.72 29.34 21.44 29 16 C25.7 21.61 22.4 27.22 19 33 C15 32 15 32 13.71972656 30.50952148 C13.18557129 29.57474976 13.18557129 29.57474976 12.640625 28.62109375 C12.24746094 27.94755859 11.85429688 27.27402344 11.44921875 26.58007812 C11.05347656 25.87302734 10.65773438 25.16597656 10.25 24.4375 C9.83878906 23.72658203 9.42757812 23.01566406 9.00390625 22.28320312 C7.99121642 20.52865912 6.99409079 18.76514839 6 17 C5.67 21.95 5.34 26.9 5 32 C3.02 32 1.04 32 -1 32 C-1.02469321 27.7641643 -1.04285671 23.52836658 -1.05493164 19.29248047 C-1.05996474 17.8510668 -1.06679173 16.40965824 -1.07543945 14.96826172 C-1.08754983 12.89809915 -1.09323847 10.82800399 -1.09765625 8.7578125 C-1.10289307 7.5114502 -1.10812988 6.26508789 -1.11352539 4.98095703 C-1 2 -1 2 0 0 Z " fill="#9225D2" transform="translate(77,248)"/>
<path d="M0 0 C1.98 0 3.96 0 6 0 C8.04061541 7.17859349 9.37369729 13.52605426 9 21 C9.66 21 10.32 21 11 21 C11.185625 20.21625 11.37125 19.4325 11.5625 18.625 C13.5865286 13.52092787 16.75054976 9.39631503 20 5 C21.734375 5.08984375 21.734375 5.08984375 24 6 C25.58470389 8.17752194 26.92718158 10.23776911 28.25 12.5625 C28.61351562 13.17802734 28.97703125 13.79355469 29.3515625 14.42773438 C30.2456088 15.94526033 31.12431628 17.47180439 32 19 C33.46856812 14.90152745 34.42470796 10.99125638 35.0625 6.6875 C35.89306358 1.10693642 35.89306358 1.10693642 37 0 C38.99958364 -0.04080783 41.00045254 -0.04254356 43 0 C42.89042969 0.57363281 42.78085937 1.14726562 42.66796875 1.73828125 C41.78934254 6.44571763 40.96706707 11.15285228 40.26953125 15.890625 C40.14231689 16.74229248 40.01510254 17.59395996 39.8840332 18.47143555 C39.62960725 20.18804241 39.38195803 21.90566843 39.14135742 23.62426758 C39.02252197 24.41986084 38.90368652 25.2154541 38.78125 26.03515625 C38.67876953 26.7506665 38.57628906 27.46617676 38.47070312 28.20336914 C38 30 38 30 36 32 C33.41930062 31.80269392 32.33418188 31.38537949 30.62792969 29.41772461 C30.22993164 28.75264893 29.83193359 28.08757324 29.421875 27.40234375 C28.98359375 26.68369141 28.5453125 25.96503906 28.09375 25.22460938 C27.6503125 24.46986328 27.206875 23.71511719 26.75 22.9375 C26.29109375 22.17888672 25.8321875 21.42027344 25.359375 20.63867188 C24.22837849 18.7654589 23.10929478 16.88611807 22 15 C18.41781496 19.29548666 15.66502636 23.83656679 12.87890625 28.671875 C11 31 11 31 8.27734375 31.828125 C7.52582031 31.88484375 6.77429688 31.9415625 6 32 C1.63724293 10.5989937 1.63724293 10.5989937 0 0 Z " fill="#9124D0" transform="translate(355,248)"/>
<path d="M0 0 C6.51234665 3.80910842 11.41526966 7.82928022 14.3125 14.9375 C15.5516051 23.04451323 14.96584204 30.01890187 10.2109375 36.81640625 C5.08144228 42.54750893 -2.05514828 46.6386868 -9.6875 47.9375 C-13.29647436 47.32852564 -13.29647436 47.32852564 -14.6875 45.9375 C-14.8125 43.4375 -14.8125 43.4375 -14.6875 40.9375 C-14.3575 40.6075 -14.0275 40.2775 -13.6875 39.9375 C-11.99898638 39.99685022 -10.31147042 40.08543026 -8.625 40.1875 C-2.71309914 40.22588897 0.96984063 38.96340068 5.3125 34.9375 C9.19058011 30.60899132 9.95612375 26.14536011 9.6953125 20.43359375 C8.8226596 14.74354066 6.74064562 11.07418733 2.25 7.5 C-3.57270278 4.40281767 -9.54671838 3.81275482 -15.9453125 5.55078125 C-20.56232601 7.54329468 -23.39999302 10.25625854 -25.84765625 14.640625 C-27.31493665 18.65346627 -27.42805234 22.7436352 -26.6875 26.9375 C-26.0275 27.5975 -25.3675 28.2575 -24.6875 28.9375 C-25.0625 31.5625 -25.0625 31.5625 -25.6875 33.9375 C-27.35361905 33.980221 -29.02132885 33.97813832 -30.6875 33.9375 C-32.69783194 31.92716806 -31.91793059 28.05710986 -31.9375 25.3125 C-31.958125 24.61253906 -31.97875 23.91257812 -32 23.19140625 C-32.05581293 15.67061382 -29.50511848 10.06439364 -24.40625 4.515625 C-17.35612309 -1.95767334 -8.99401928 -2.59149708 0 0 Z " fill="#7E24B1" transform="translate(284.6875,83.0625)"/>
<path d="M0 0 C3.69858744 0.42350618 5.42167706 2.06860676 7.96875 4.67578125 C8.70480469 5.42150391 9.44085938 6.16722656 10.19921875 6.93554688 C11.33810547 8.11213867 11.33810547 8.11213867 12.5 9.3125 C13.63888672 10.47168945 13.63888672 10.47168945 14.80078125 11.65429688 C16.22026045 13.09987858 17.63663126 14.54852401 19.04882812 16.0012207 C21.01635458 18.01675362 23.00832567 20.00832567 25 22 C25 14.74 25 7.48 25 0 C26.65 0 28.3 0 30 0 C30 10.56 30 21.12 30 32 C28.02 32.495 28.02 32.495 26 33 C23.99975963 31.41022243 22.40469735 29.92060784 20.6875 28.0625 C20.20474609 27.55976563 19.72199219 27.05703125 19.22460938 26.5390625 C15.85750509 23.00562596 12.59314848 19.37991521 9.4375 15.65625 C8.03214162 14.03703274 6.51606344 12.51606344 5 11 C4.67 17.93 4.34 24.86 4 32 C2.35 32 0.7 32 -1 32 C-1.02465504 27.60343827 -1.04283842 23.2069128 -1.05493164 18.81030273 C-1.05997121 17.31355082 -1.06680287 15.81680384 -1.07543945 14.32006836 C-1.08752159 12.17300193 -1.09323191 10.02600038 -1.09765625 7.87890625 C-1.10289307 6.5854126 -1.10812988 5.29191895 -1.11352539 3.95922852 C-1 1 -1 1 0 0 Z " fill="#9525D6" transform="translate(146,248)"/>
<path d="M0 0 C1.8253125 -0.01160156 1.8253125 -0.01160156 3.6875 -0.0234375 C7.24258941 0.40417939 8.70805621 0.62803796 11 3.375 C11.53125 6.58984375 11.53125 6.58984375 11.5 10.3125 C11.5103125 11.53839844 11.520625 12.76429688 11.53125 14.02734375 C11 17.375 11 17.375 9.40625 19.78515625 C6.15512678 21.93321981 3.87324861 21.90782414 0 21.875 C-1.8253125 21.89046875 -1.8253125 21.89046875 -3.6875 21.90625 C-7 21.375 -7 21.375 -9.40625 19.78515625 C-11.56673183 16.51795701 -11.53274111 14.20459957 -11.5 10.3125 C-11.5103125 9.08402344 -11.520625 7.85554688 -11.53125 6.58984375 C-11 3.375 -11 3.375 -9.40625 1.46484375 C-6.16484521 -0.00326004 -3.55020146 -0.02256484 0 0 Z " fill="#180524" transform="translate(328,253.625)"/>
<path d="M0 0 C3.5578125 -0.12375 3.5578125 -0.12375 7.1875 -0.25 C7.92508545 -0.28641602 8.6626709 -0.32283203 9.42260742 -0.36035156 C12.84199694 -0.41761075 14.94111288 -0.03213443 17.94921875 1.609375 C20.60583031 4.70622505 20.67135933 6.45746654 20.625 10.5 C20.63789063 11.6240625 20.65078125 12.748125 20.6640625 13.90625 C20 17 20 17 17.94921875 19.390625 C14.27358316 21.3964023 11.24804694 21.45047703 7.1875 21.25 C4.815625 21.1675 2.44375 21.085 0 21 C0 14.07 0 7.14 0 0 Z " fill="#190624" transform="translate(195,254)"/>
<path d="M0 0 C1.98 0 3.96 0 6 0 C6 8.58 6 17.16 6 26 C13.59 26 21.18 26 29 26 C29 27.98 29 29.96 29 32 C25.03069011 32.02465881 21.06140966 32.04284023 17.09204102 32.05493164 C15.74079614 32.05997057 14.38955674 32.06680177 13.03833008 32.07543945 C11.09979566 32.08752419 9.161222 32.09269828 7.22265625 32.09765625 C5.47094116 32.10551147 5.47094116 32.10551147 3.68383789 32.11352539 C1 32 1 32 0 31 C-0.08790975 28.70848583 -0.10694038 26.41427476 -0.09765625 24.12109375 C-0.0962413 23.4344313 -0.09482635 22.74776886 -0.09336853 22.04029846 C-0.08775479 19.83932199 -0.07520007 17.63844591 -0.0625 15.4375 C-0.05748676 13.94856917 -0.05292355 12.45963676 -0.04882812 10.97070312 C-0.03778093 7.31376925 -0.02050713 3.65689442 0 0 Z " fill="#8E24CC" transform="translate(273,248)"/>
<path d="M0 0 C1.21171875 0.00322266 2.4234375 0.00644531 3.671875 0.00976562 C4.94289062 0.01814453 6.21390625 0.02652344 7.5234375 0.03515625 C8.8021875 0.03966797 10.0809375 0.04417969 11.3984375 0.04882812 C14.56515042 0.06064422 17.73177106 0.0771181 20.8984375 0.09765625 C20.8984375 2.07765625 20.8984375 4.05765625 20.8984375 6.09765625 C13.3084375 6.09765625 5.7184375 6.09765625 -2.1015625 6.09765625 C-2.1015625 14.67765625 -2.1015625 23.25765625 -2.1015625 32.09765625 C-4.0815625 32.09765625 -6.0615625 32.09765625 -8.1015625 32.09765625 C-8.1015625 21.86765625 -8.1015625 11.63765625 -8.1015625 1.09765625 C-5.33538687 -0.28543156 -3.0913825 -0.01444571 0 0 Z " fill="#9124D0" transform="translate(241.1015625,247.90234375)"/>
<path d="M0 0 C1.28132813 0.00902344 2.56265625 0.01804688 3.8828125 0.02734375 C4.87023437 0.03894531 5.85765625 0.05054688 6.875 0.0625 C6.875 4.3525 6.875 8.6425 6.875 13.0625 C0.275 13.0625 -6.325 13.0625 -13.125 13.0625 C-13.125 6.0625 -13.125 6.0625 -11.25 3.1875 C-7.59159642 -0.47090358 -5.07508372 -0.04613712 0 0 Z " fill="#1A0626" transform="translate(459.125,253.9375)"/>
<path d="M0 0 C1.98 0 3.96 0 6 0 C6 10.56 6 21.12 6 32 C4.02 32 2.04 32 0 32 C0 21.44 0 10.88 0 0 Z " fill="#9024CE" transform="translate(485,248)"/>
<path d="M0 0 C1.98 0 3.96 0 6 0 C6 10.56 6 21.12 6 32 C4.02 32 2.04 32 0 32 C0 21.44 0 10.88 0 0 Z " fill="#8E23CC" transform="translate(126,248)"/>
<path d="M0 0 C6.27 0 12.54 0 19 0 C19 1.98 19 3.96 19 6 C12.73 6 6.46 6 0 6 C0 4.02 0 2.04 0 0 Z " fill="#8C23C9" transform="translate(241,261)"/>
<path d="M0 0 C6.93 0 13.86 0 21 0 C21 1.65 21 3.3 21 5 C14.07 5 7.14 5 0 5 C0 3.35 0 1.7 0 0 Z " fill="#8F24CD" transform="translate(408,262)"/>
<path d="M0 0 C3.69230769 0.69230769 3.69230769 0.69230769 5 2 C5.125 4.5 5.125 4.5 5 7 C4 8 4 8 1.4375 8.0625 C0.633125 8.041875 -0.17125 8.02125 -1 8 C-1 6.33333333 -1 4.66666667 -1 3 C-4.3 3 -7.6 3 -11 3 C-11 2.67 -11 2.34 -11 2 C-10.28972656 1.93941406 -9.57945312 1.87882813 -8.84765625 1.81640625 C-7.46900391 1.69072266 -7.46900391 1.69072266 -6.0625 1.5625 C-5.14597656 1.48128906 -4.22945313 1.40007812 -3.28515625 1.31640625 C-1.03840268 1.23955024 -1.03840268 1.23955024 0 0 Z " fill="#591481" transform="translate(281,148)"/>
<path d="M0 0 C3.0625 0.1875 3.0625 0.1875 5.0625 2.1875 C4.0725 2.5175 3.0825 2.8475 2.0625 3.1875 C2.0625 3.8475 2.0625 4.5075 2.0625 5.1875 C3.7125 5.1875 5.3625 5.1875 7.0625 5.1875 C7.0625 5.5175 7.0625 5.8475 7.0625 6.1875 C5.60786519 6.57659985 4.14858793 6.94838029 2.6875 7.3125 C1.87539063 7.52132812 1.06328125 7.73015625 0.2265625 7.9453125 C-0.48757813 8.02523437 -1.20171875 8.10515625 -1.9375 8.1875 C-3.9375 6.1875 -3.9375 6.1875 -4.125 3.625 C-3.8509967 0.06295712 -3.62735131 0.23153306 0 0 Z " fill="#641A8F" transform="translate(273.9375,122.8125)"/>
<path d="M0 0 C0.66 1.32 1.32 2.64 2 4 C2.66 3.34 3.32 2.68 4 2 C4.125 4.375 4.125 4.375 4 7 C3.34 7.66 2.68 8.32 2 9 C-0.625 8.625 -0.625 8.625 -3 8 C-3.33 6.35 -3.66 4.7 -4 3 C-2.68 2.01 -1.36 1.02 0 0 Z " fill="#511374" transform="translate(313,130)"/>
<path d="M0 0 C1.65 0.33 3.3 0.66 5 1 C5.042721 2.66611905 5.04063832 4.33382885 5 6 C4 7 4 7 1.4375 7.0625 C0.2309375 7.0315625 0.2309375 7.0315625 -1 7 C-1 3 -1 3 0 0 Z " fill="#601989" transform="translate(250,159)"/>
<path d="M0 0 C0.33 0 0.66 0 1 0 C1 1.65 1 3.3 1 5 C2.32 5 3.64 5 5 5 C5.33 6.65 5.66 8.3 6 10 C4.33388095 10.042721 2.66617115 10.04063832 1 10 C0 9 0 9 -0.09765625 6.93359375 C-0.08605469 6.10988281 -0.07445312 5.28617187 -0.0625 4.4375 C-0.05347656 3.61121094 -0.04445312 2.78492187 -0.03515625 1.93359375 C-0.02355469 1.29550781 -0.01195312 0.65742187 0 0 Z " fill="#631B8C" transform="translate(253,107)"/>
<path d="M0 0 C2.375 -0.125 2.375 -0.125 5 0 C5.66 0.66 6.32 1.32 7 2 C6.625 4.125 6.625 4.125 6 6 C4.68 5.67 3.36 5.34 2 5 C2.66 5 3.32 5 4 5 C4 4.01 4 3.02 4 2 C2.35 2.33 0.7 2.66 -1 3 C-0.67 2.01 -0.34 1.02 0 0 Z " fill="#872ABC" transform="translate(265,69)"/>
<path d="M0 0 C0.042721 1.66611905 0.04063832 3.33382885 0 5 C-1 6 -1 6 -3.5625 6.0625 C-4.7690625 6.0315625 -4.7690625 6.0315625 -6 6 C-5.67 4.35 -5.34 2.7 -5 1 C-1.125 0 -1.125 0 0 0 Z " fill="#471067" transform="translate(286,150)"/>
<path d="M0 0 C2.875 -0.125 2.875 -0.125 6 0 C6.66 0.66 7.32 1.32 8 2 C7.01 2 6.02 2 5 2 C4.67 2.99 4.34 3.98 4 5 C3.01 5 2.02 5 1 5 C0.67 3.35 0.34 1.7 0 0 Z " fill="#521575" transform="translate(271,123)"/>
<path d="M0 0 C0.66 0 1.32 0 2 0 C1.68289063 0.53109375 1.36578125 1.0621875 1.0390625 1.609375 C-0.2370349 4.54535848 -0.41707021 7.06174329 -0.625 10.25 C-0.69976562 11.32765625 -0.77453125 12.4053125 -0.8515625 13.515625 C-0.90054687 14.33546875 -0.94953125 15.1553125 -1 16 C-1.33 16 -1.66 16 -2 16 C-2.05384521 13.70858714 -2.09272087 11.41681812 -2.125 9.125 C-2.14820313 7.84882813 -2.17140625 6.57265625 -2.1953125 5.2578125 C-2 2 -2 2 0 0 Z " fill="#260937" transform="translate(319,255)"/>
<path d="M0 0 C0.33 0 0.66 0 1 0 C1.125 2.375 1.125 2.375 1 5 C0.34 5.66 -0.32 6.32 -1 7 C-3.625 6.625 -3.625 6.625 -6 6 C-6 5.34 -6 4.68 -6 4 C-4.68 4.33 -3.36 4.66 -2 5 C-1.67 4.01 -1.34 3.02 -1 2 C-0.67 1.34 -0.34 0.68 0 0 Z " fill="#5C1684" transform="translate(316,132)"/>
<path d="M0 0 C0.66 0.33 1.32 0.66 2 1 C-0.97 3.97 -3.94 6.94 -7 10 C-7 7 -7 7 -4.625 4.4375 C-3.75875 3.633125 -2.8925 2.82875 -2 2 C-1.34 1.34 -0.68 0.68 0 0 Z " fill="#8629BB" transform="translate(254,76)"/>
<path d="M0 0 C0.33 0 0.66 0 1 0 C1 2.64 1 5.28 1 8 C0.34 7.34 -0.32 6.68 -1 6 C-1.99 6.66 -2.98 7.32 -4 8 C-2.87548273 5.0280615 -1.77706209 2.66559313 0 0 Z " fill="#270939" transform="translate(106,263)"/>
<path d="M0 0 C1.65 0.33 3.3 0.66 5 1 C5 1.66 5 2.32 5 3 C3.35 3 1.7 3 0 3 C-0.33 3.66 -0.66 4.32 -1 5 C-0.67 3.35 -0.34 1.7 0 0 Z " fill="#8B2CC2" transform="translate(282,43)"/>
<path d="M0 0 C2.0625 0.4375 2.0625 0.4375 4 1 C2.73223544 3.53552912 1.53176935 3.84919575 -1 5 C-1.99 5.495 -1.99 5.495 -3 6 C-1.125 1.125 -1.125 1.125 0 0 Z " fill="#7B1FB1" transform="translate(375,253)"/>
<path d="M0 0 C0.99 0.33 1.98 0.66 3 1 C2.67 2.65 2.34 4.3 2 6 C0.68 6 -0.64 6 -2 6 C-2 5.34 -2 4.68 -2 4 C-1.01 4 -0.02 4 1 4 C0.67 2.68 0.34 1.36 0 0 Z " fill="#922FCB" transform="translate(245,52)"/>
</svg>
